<svg xmlns="http://www.w3.org/2000/svg" viewBox="0 0 512 512">
    <circle cx="221.705" cy="188.818" r="39.606" />
    <path d="M172.427 243.363h-.057l-53.602.156L108.7 158.23c-1.742-14.763-15.198-25.278-29.94-23.41l-24.42 3.097c-12.986 1.645-22.837 12.425-23.363 25.468l25.25-9.195-48.783 35.01c-4.137 2.968-6.612 7.732-6.66 12.825L0 282.106c-.085 8.824 7 16.048 15.824 16.135h.16c8.752 0 15.89-7.05 15.975-15.822.08-8.373.618-63.348.702-71.976l49.97-35.86-43.676 50.22 4.544 33.21c1.337 9.77 7.995 18.208 17.608 21.6V445.82c0 10.59 8.585 19.175 19.175 19.175s19.175-8.585 19.175-19.175V281.926l44.728-.13L118.3 347.21c-3.896 9.847.927 20.988 10.774 24.886 9.85 3.898 20.99-.93 24.886-10.774l36.3-91.73c4.97-12.568-4.305-26.23-17.833-26.23z" />
    <circle cx="80.869" cy="86.611" r="39.606" />
    <circle cx="431.132" cy="86.611" r="39.606" />
    <path d="M511.216 202.028c-.05-5.093-2.524-9.857-6.66-12.826l-48.784-35.01 25.25 9.197c-.22-5.48-2.113-10.8-5.497-15.21-3.698-4.82-8.91-8.19-14.744-9.65l-27.54-3.707c-7.08-.897-14.227 1.07-19.848 5.466-5.622 4.395-9.256 10.854-10.092 17.942l-1.622 13.736-21.8 17.176-61.412 6.08c-8.782.87-15.196 8.696-14.327 17.478.87 8.79 8.7 15.197 17.476 14.327l66.057-6.543c3.5-.347 6.185-1.673 8.71-3.66l-6.515 55.183-46.834 45.727c-2.87 2.803-4.79 6.436-5.487 10.387l-16.857 95.5c-1.84 10.43 5.12 20.376 15.55 22.217 10.408 1.84 20.373-5.105 22.216-15.55l15.784-89.423 40.705-39.742V445.82c0 10.59 8.585 19.176 19.175 19.176s19.175-8.585 19.175-19.175V278.63c8.348-3.89 13.987-11.706 15.206-20.618l4.545-33.21-43.675-50.22 49.97 35.86.703 71.977c.085 8.77 7.223 15.823 15.975 15.822h.16c8.825-.086 15.908-7.31 15.823-16.135-.362-36.84-.424-43.256-.784-80.08z" />
</svg>
