<svg xmlns="http://www.w3.org/2000/svg" viewBox="0 0 496.158 496.158">
    <path d="M496.2 248c0-137-111-248-248-248S0 111 0 248s111 248.2 248 248.2 248.2-111 248.2-248z" fill="#E04F5F"/>
    <path d="M277 248l72.6-84c8-9.3 6.8-23.2-2.3-31-9.2-8-23-7-31 2.2L248 214.5l-68-79.3c-8-9-21.7-10.2-31-2.3-9 7.6-10 21.5-2.2 31l72.5 84-72.3 84c-8 9.2-7 23 2.2 31 4 3.5 9 5.2 14.2 5.2 6.2 0 12.3-2.5 16.6-7.6l68.3-79.3 68.3 79.2c4.4 5 10.5 7.5 16.7 7.5 5 0 10-1.7 14.3-5.3 9-8 10.2-21.8 2.3-31l-72.8-84z" fill="#FFF"/>
</svg>
