<svg xmlns="http://www.w3.org/2000/svg" viewBox="0 0 20 20">
    <path d="M2.136 10c0-.568-.454-1.023-1.022-1.023C.544 8.977.09 9.432.09 10c0 .568.455 1.023 1.024 1.023.568 0 1.022-.455 1.022-1.023zm-.363 3.545c-.478.273-.66.91-.364 1.387.18.318.545.523.885.523.182 0 .34-.046.523-.137.5-.295.66-.91.387-1.386-.296-.5-.932-.66-1.432-.387zm4.272 3.273c-.477-.273-1.113-.113-1.386.364-.296.477-.115 1.113.363 1.386.16.09.34.137.522.137.364 0 .705-.182.887-.5.273-.478.113-1.114-.387-1.387zm12.16-3.25c-.478-.295-1.114-.113-1.387.364-.273.477-.113 1.113.364 1.386.16.09.34.137.523.137.363 0 .704-.182.886-.5.274-.455.092-1.09-.385-1.387zm-8.228 4.296c-.568 0-1.022.454-1.022 1.022 0 .57.454 1.023 1.022 1.023.568 0 1.023-.455 1.023-1.024 0-.568-.455-1.022-1.023-1.022zm3.932-1.046c-.478.273-.66.91-.365 1.387.182.318.546.522.887.522.182 0 .34-.045.523-.136.477-.272.66-.908.363-1.385-.295-.5-.91-.66-1.41-.387zM2.817 4.658c-.477-.294-1.113-.113-1.386.365-.273.5-.114 1.113.363 1.41.16.09.34.135.523.135.364 0 .705-.182.887-.5.272-.5.09-1.113-.387-1.41zm2.227-3.25c-.477.274-.66.91-.363 1.387.182.32.523.5.886.5.182 0 .34-.045.523-.136.478-.296.66-.91.365-1.387-.296-.478-.932-.637-1.41-.364zM10 .092c-.568 0-1.023.455-1.023 1.024 0 .568.455 1.022 1.023 1.022 4.34 0 7.864 3.523 7.864 7.864 0 .568.454 1.023 1.022 1.023.57 0 1.023-.455 1.023-1.023 0-5.455-4.455-9.91-9.91-9.91z"/>
</svg>
