<svg xmlns="http://www.w3.org/2000/svg" viewBox="0 0 55 55">
    <path d="M54.924 24.382c.1-.244.1-.52 0-.764-.05-.123-.125-.234-.217-.327l-12-11.997c-.39-.39-1.022-.39-1.413 0s-.39 1.023 0 1.414L51.587 23H36V1c0-.553-.446-1-1-1H1C.97 0 .94.015.91.018.854.023.805.036.752.05.658.075.574.11.492.158.468.174.436.174.413.192.38.215.355.244.327.27.31.284.293.3.278.315.2.398.137.49.092.59.083.61.08.63.07.65.03.76 0 .877 0 1v46c0 .125.03.243.073.355.014.037.035.068.053.103.037.07.08.136.132.196.03.032.058.06.09.09.058.05.123.093.193.13.038.02.072.04.112.056.017.006.03.018.047.024l22 7c.097.03.2.046.3.046.21 0 .418-.066.59-.192.26-.188.41-.488.41-.808v-6h11c.554 0 1-.447 1-1V25h15.587L41.294 35.293c-.39.39-.39 1.023 0 1.414.195.195.45.293.707.293s.513-.098.708-.293l12-12c.09-.09.165-.202.216-.325zM22 52.632L2 46.27V2.366L22 8.73v43.903zM34 46H24V8c0-.436-.28-.82-.696-.953L7.442 2h26.56v44z"/>
    <path d="M20.372 31.07l-5-2c-.51-.204-1.095.044-1.3.56-.205.512.045 1.094.558 1.3l5 2c.12.048.247.07.37.07.397 0 .773-.237.93-.63.204-.512-.046-1.094-.558-1.3z"/>
</svg>
