<svg xmlns="http://www.w3.org/2000/svg" viewBox="0 0 60 60">
    <path d="M41.5 2h-6V1c0-.6-.4-1-1-1h-9c-.6 0-1 .4-1 1v1h-19v58h49V2h-13zm11 36.6l-1 1V5h-9V4h10v34.6zM36 55H10.6V7h7v3h25V7h7v34.6L36 55zm13.5-10.6V55H39l10.5-10.6zM33.5 2v3h-7V2h7zm-9 2v3h11V4h5v4h-21V4h5zm-17 0h10v1h-9v52H34l-1 1H7.6V4zM36 58l1-1h14.5V42.4l1-1V58H36z"/>
    <path d="M16.5 18h9c.6 0 1-.4 1-1s-.4-1-1-1h-9c-.6 0-1 .4-1 1s.4 1 1 1zm0 8h5c.6 0 1-.4 1-1s-.4-1-1-1h-5c-.6 0-1 .4-1 1s.4 1 1 1zm22-2h-7c-.6 0-1 .4-1 1s.4 1 1 1h7c.6 0 1-.4 1-1s-.4-1-1-1zm-12.7.3c-.2.2-.3.4-.3.7 0 .3 0 .5.3.7.2.2.4.3.7.3.3 0 .5 0 .7-.3.2-.2.3-.4.3-.7 0-.3 0-.5-.3-.7-.4-.4-1-.4-1.4 0zm18.4 0c-.4-.4-1-.4-1.4 0-.2.2-.3.4-.3.7 0 .3 0 .5.3.7.2.2.4.3.7.3.3 0 .5 0 .7-.3.2-.2.3-.4.3-.7 0-.3 0-.5-.3-.7zM28.5 32h-7c-.6 0-1 .4-1 1s.4 1 1 1h7c.6 0 1-.4 1-1s-.4-1-1-1zm-12 2c.3 0 .5 0 .7-.3.2-.2.3-.4.3-.7 0-.3 0-.5-.3-.7-.4-.4-1-.4-1.4 0-.2.2-.3.4-.3.7 0 .3 0 .5.3.7.2.2.4.3.7.3zm3 7.2c-2 1-3 3.3-3 5.5l-1.3-1c-1-.8-2.4.6-1.4 1.4l2.8 2.7c.7.5 1.7.2 1.7-.7 0-2.3.2-5 2.4-6 1-.6 0-2.3-1-1.7zm6.8 4c-1.4.3-3 2-4 0-.5-1-2.2 0-1.7 1 .5 1 1.5 2 2.7 2 .6 0 1 0 1.7-.2.4-.2 2-1.3 2.3-.7.6 1 2.3 0 1.7-1-.6-1-1.6-1.4-2.7-1z"/>
</svg>
