<svg xmlns="http://www.w3.org/2000/svg" viewBox="0 0 496.158 496.158">
    <path d="M496.2 248c0-137-111-248-248-248S0 111 0 248s111 248.2 248 248.2 248.2-111 248.2-248z" fill="#32BEA6"/>
    <path d="M384.7 165c-6-15-17.8-12.7-30.7-10.2-7.7 1.6-42 11.7-96 68.8-22.6 23.7-37.4 42.6-47.2 57-6-7.3-12.8-15-20-22.3-22-22-46.7-37.2-47.7-38-10-6.2-23-3-30 7.4-6 10.3-3 23.8 8 30.2 0 0 21.5 13 39.8 31 18.6 18 35.5 44 35.6 44 4 6 11 10 18.3 10 1.3 0 2.5 0 3.8-1 8.6-1.6 15.5-8 17.6-16.4 0-.3 9-24.3 55-72.8 37-39 61.7-51.5 70-55h.6l1-.4 2.3-.8h-.7l11.4-5c11-4.7 14.8-16.7 10.5-28z" fill="#FFF"/>
</svg>
