<svg xmlns="http://www.w3.org/2000/svg" viewBox="0 0 512.004 512.004">
    <path d="M444.326 0H67.754C50.346 0 36.19 14.16 36.19 31.56l-.084 252.94c0 17.404 14.156 31.5 31.556 31.5h124.336c-.008 0 0 .18 0 .212V348H168.27c-2.208 0-4.272 2.18-4.272 4.388V368c0 2.208 2.064 4 4.272 4h174.78c2.212 0 4.948-1.792 4.948-4v-15.612c0-2.208-2.736-4.388-4.944-4.388h-23.056v-31.788c0-.032-.256-.212-.264-.212h124.508c17.408 0 31.564-14.096 31.564-31.496l.092-252.972C475.898 14.128 461.734 0 444.326 0zM255.934 292.392c-6.616 0-12-5.38-12-11.996 0-6.616 5.384-11.996 12-11.996 6.608 0 11.992 5.38 11.992 11.996 0 6.616-5.38 11.996-11.992 11.996zM447.998 248h-384V28h384v220zM323.998 403.884c0-6.564-5.32-11.884-11.884-11.884H83.882c-6.564 0-11.884 5.32-11.884 11.884v96.236c0 6.564 5.32 11.884 11.884 11.884h228.236c6.564 0 11.884-5.32 11.884-11.884v-96.236h-.004zM267.778 408h4.632c4.42 0 8 3.58 8 8 0 4.416-3.58 8-8 8h-4.632c-4.42 0-8-3.584-8-8 0-4.42 3.58-8 8-8zm-71.992 0h4.116c4.42 0 8 3.58 8 8 0 4.416-3.58 8-8 8h-4.116c-4.42 0-8-3.584-8-8 0-4.42 3.58-8 8-8zm0 24h4.116c4.42 0 8 3.584 8 8 0 4.42-3.58 8-8 8h-4.116c-4.42 0-8-3.58-8-8 0-4.416 3.58-8 8-8zm0 24h4.116c4.42 0 8 3.584 8 8s-3.58 8-8 8h-4.116c-4.42 0-8-3.584-8-8s3.58-8 8-8zm-24-48h4.4c4.416 0 8 3.58 8 8 0 4.416-3.584 8-8 8h-4.4c-4.416 0-8-3.584-8-8 0-4.42 3.588-8 8-8zm0 24h4.4c4.416 0 8 3.584 8 8 0 4.42-3.584 8-8 8h-4.4c-4.416 0-8-3.58-8-8 0-4.416 3.588-8 8-8zm0 24h4.4c4.416 0 8 3.584 8 8s-3.584 8-8 8h-4.4c-4.416 0-8-3.584-8-8s3.588-8 8-8zm-71.992-48h4.108c4.416 0 8 3.58 8 8 0 4.416-3.584 8-8 8h-4.108c-4.416 0-8-3.584-8-8 0-4.42 3.588-8 8-8zm0 24h4.108c4.416 0 8 3.584 8 8 0 4.42-3.584 8-8 8h-4.108c-4.416 0-8-3.58-8-8 0-4.416 3.588-8 8-8zm4.112 64h-4.108c-4.416 0-8-3.584-8-8s3.584-8 8-8h4.108c4.416 0 8 3.584 8 8s-3.588 8-8 8zm23.992 0h-4.1c-4.42 0-8-3.584-8-8s3.58-8 8-8h4.1c4.42 0 8 3.584 8 8s-3.58 8-8 8zm0-24h-28.1c-4.416 0-8-3.584-8-8s3.584-8 8-8h28.1c4.42 0 8 3.584 8 8s-3.58 8-8 8zm0-24h-4.1c-4.42 0-8-3.58-8-8 0-4.416 3.58-8 8-8h4.1c4.42 0 8 3.584 8 8 0 4.42-3.58 8-8 8zm0-24h-4.1c-4.42 0-8-3.584-8-8 0-4.42 3.58-8 8-8h4.1c4.42 0 8 3.58 8 8 0 4.416-3.58 8-8 8zm24 72h-4.1c-4.42 0-8-3.584-8-8s3.58-8 8-8h4.1c4.416 0 8 3.584 8 8s-3.588 8-8 8zm0-24h-4.1c-4.42 0-8-3.584-8-8s3.58-8 8-8h4.1c4.416 0 8 3.584 8 8s-3.588 8-8 8zm0-24h-4.1c-4.42 0-8-3.58-8-8 0-4.416 3.58-8 8-8h4.1c4.416 0 8 3.584 8 8 0 4.42-3.588 8-8 8zm0-24h-4.1c-4.42 0-8-3.584-8-8 0-4.42 3.58-8 8-8h4.1c4.416 0 8 3.58 8 8 0 4.416-3.588 8-8 8zm72.348 72h-52.46c-4.416 0-8-3.584-8-8s3.584-8 8-8h52.46c4.416 0 8 3.584 8 8s-3.584 8-8 8zm0-24h-4.46c-4.42 0-8-3.584-8-8s3.58-8 8-8h4.46c4.416 0 8 3.584 8 8s-3.584 8-8 8zm0-24h-4.46c-4.42 0-8-3.58-8-8 0-4.416 3.58-8 8-8h4.46c4.416 0 8 3.584 8 8 0 4.42-3.584 8-8 8zm0-24h-4.46c-4.42 0-8-3.584-8-8 0-4.42 3.58-8 8-8h4.46c4.416 0 8 3.58 8 8 0 4.416-3.584 8-8 8zm24.332 72h-4.796c-4.416 0-8-3.584-8-8s3.584-8 8-8h4.796c4.42 0 8 3.584 8 8s-3.58 8-8 8zm0-24h-4.796c-4.416 0-8-3.584-8-8s3.584-8 8-8h4.796c4.42 0 8 3.584 8 8s-3.58 8-8 8zm0-24h-4.796c-4.416 0-8-3.58-8-8 0-4.416 3.584-8 8-8h4.796c4.42 0 8 3.584 8 8 0 4.42-3.58 8-8 8zm0-24h-4.796c-4.416 0-8-3.584-8-8 0-4.42 3.584-8 8-8h4.796c4.42 0 8 3.58 8 8 0 4.416-3.58 8-8 8zm19.2 8h4.632c4.42 0 8 3.584 8 8 0 4.42-3.58 8-8 8h-4.632c-4.42 0-8-3.58-8-8 0-4.416 3.58-8 8-8zm4.636 64h-4.632c-4.42 0-8-3.584-8-8s3.58-8 8-8h4.632c4.42 0 8 3.584 8 8s-3.58 8-8 8zm23.468 0h-4.1c-4.42 0-8-3.584-8-8s3.58-8 8-8h4.1c4.42 0 8 3.584 8 8s-3.58 8-8 8zm0-24h-28.1c-4.42 0-8-3.584-8-8 0-4.42 3.58-8 8-8h28.1c4.42 0 8 3.58 8 8 0 4.416-3.58 8-8 8zm.74-24h-4.844c-4.42 0-8-3.58-8-8 0-4.416 3.58-8 8-8h4.844c4.416 0 8 3.584 8 8 0 4.42-3.584 8-8 8zm0-24h-4.844c-4.42 0-8-3.584-8-8 0-4.42 3.58-8 8-8h4.844c4.416 0 8 3.58 8 8 0 4.416-3.584 8-8 8zM394.442 400h-6.188c-18.14 0-32.256 15.26-32.256 34.092v44.316c0 18.836 14.116 33.588 32.256 33.588h6.188c18.516 0 33.556-15.068 33.556-33.588v-44.316c0-18.516-15.04-34.092-33.556-34.092zm5.556 32.336c0 4.416-3.584 8-8 8-4.42 0-8-3.584-8-8v-8.668c0-4.42 3.58-8 8-8 4.416 0 8 3.58 8 8v8.668z"/>
</svg>
