<svg xmlns="http://www.w3.org/2000/svg" viewBox="0 0 430.118 430.118">
    <path d="M231.59 382.327l-65.65-28.143V47.79s142.676 23.973 162.314 83.37c19.645 59.406-10.967 97.88-21.706 99.01-29.986 3.128-41.355-15.632-41.355-15.632v-95.883l-32.566-13.548-1.037 277.22zm17.062-42.21v35.946s154.56-50.02 177.303-69.297c22.747-19.28-53.242-67.215-94.074-57.844 0 0-43.39 2.11-82.71 19.28-.373.153 0 32.3 0 32.3l99.764-23.438 35.148 15.63-135.43 47.423zm-99.252-2.603s-20.16 10.417-65.132 9.894c-44.97-.527-84.78-13.03-84.264-40.118.516-27.097 74.44-56.798 148.877-69.306v38.036l-79.087 20.844s-13.54 17.212 4.655 17.716c41.353 1.158 75.47-9.903 75.47-9.903l-.518 32.837z"/>
</svg>
