<svg xmlns="http://www.w3.org/2000/svg" viewBox="0 0 512 512">
    <path d="M425.298 51.358h-91.455V16.696c0-9.22-7.475-16.696-16.696-16.696H194.854c-9.22 0-16.696 7.475-16.696 16.696v34.662H86.703c-9.22 0-16.696 7.475-16.696 16.696v51.357c0 9.22 7.475 16.697 16.696 16.697h338.593c9.22 0 16.696-7.475 16.696-16.696V68.055c0-9.222-7.474-16.696-16.694-16.696zm-124.848 0h-88.9V33.39h88.9V51.36zM93.192 169.497l13.844 326.516c.378 8.937 7.735 15.988 16.68 15.988h264.568c8.945 0 16.302-7.05 16.68-15.988l13.843-326.515H93.192zM205.53 444.105c0 9.22-7.475 16.696-16.696 16.696-9.22 0-16.696-7.474-16.696-16.695V237.39c0-9.22 7.475-16.695 16.696-16.695 9.22 0 16.696 7.475 16.696 16.696v206.715zm67.163 0c0 9.22-7.475 16.696-16.696 16.696s-16.696-7.474-16.696-16.695V237.39c0-9.22 7.476-16.695 16.697-16.695s16.696 7.475 16.696 16.696v206.715zm67.163 0c0 9.22-7.475 16.696-16.696 16.696s-16.696-7.474-16.696-16.695V237.39c0-9.22 7.475-16.695 16.696-16.695s16.696 7.475 16.696 16.696v206.715z"/>
</svg>
