<svg xmlns="http://www.w3.org/2000/svg" viewBox="0 0 52 52">
    <path d="M9.5 37h10v5c0 .404.244.77.617.924.124.052.254.076.383.076.26 0 .516-.102.707-.293L26.914 37H38c.265 0 .52-.105.707-.293l6.5-6.5c.188-.187.293-.44.293-.707V6c0-.553-.448-1-1-1h-35c-.552 0-1 .447-1 1v30c0 .553.448 1 1 1zm1-30h33v22.086L37.586 35H26.5c-.265 0-.52.105-.707.293L21.5 39.586V36c0-.553-.448-1-1-1h-10V7z"/>
    <path d="M50.5 0H5c-.356 0-.685.19-.864.496l-3.5 6C.546 6.65.5 6.823.5 7v37c0 .553.448 1 1 1h11v6c0 .553.448 1 1 1h7c.247 0 .485-.092.67-.257L28.66 45H38c.25 0 .493-.095.677-.264l12.5-11.5c.206-.19.323-.457.323-.736V1c0-.553-.448-1-1-1zm-1 32.062L37.61 43h-9.332c-.247 0-.485.092-.67.257L20.117 50H14.5v-6c0-.553-.448-1-1-1h-11V7.27L5.574 2H49.5v30.062z"/>
    <path d="M21.5 28h4c.552 0 1-.447 1-1V14c0-.553-.448-1-1-1h-4c-.552 0-1 .447-1 1v13c0 .553.448 1 1 1zm1-13h2v11h-2V15zM31.5 28h4c.552 0 1-.447 1-1V14c0-.553-.448-1-1-1h-4c-.552 0-1 .447-1 1v13c0 .553.448 1 1 1zm1-13h2v11h-2V15z"/>
</svg>
