<svg xmlns="http://www.w3.org/2000/svg" viewBox="0 0 486.924 486.924">
    <g>
        <path d="M13.4 409c-18 18-18 46.7 0 64.5 9 9 20.5 13.4 32.2 13.4S69 482 78 473l149.6-149.7L163 259 13.7 409zm374-277.4L453 98l34-66-32-32-66 34.2-33.6 65.2-79.3 79.4 32.6 32.2"/>
        <path d="M401.8 304.6l-6-.6c-11.2 0-21.8 2.3-31.6 6L177 122.8c3.6-10 6-20.4 6-31.6l-.7-6C179 37.5 140 0 91.7 0c-14 0-27.2 3.5-39 9.2L113 69.7c3.2 3.2 5.4 7 7 11 3.8 10.7 1.7 23.3-7 32-6 6-13.7 9-21.5 9-3.6 0-7-1-10.5-2-4-1.7-7.8-3.8-11-7L9.7 52C4 64 .5 77.3.5 91.3c0 48.3 37.6 87.4 85 90.6l6.2.2c11.2 0 21.7-2.2 31.6-6l187 187.3c-3.5 10-5.8 20.4-5.8 31.5l.7 6.3c3 47.5 42.3 85 90.5 85 14 0 27.3-3.3 39-9l-60.5-60.7c-3-3-5.3-7-7-11-4-10.6-1.7-23.3 7-32 6-6 13.7-9 21.5-9 3.6 0 7 1 10.6 2.2 4 1.3 7.8 3.4 11 6.6l60.5 60.6c5.7-12 9-25 9-39 0-48.3-37.5-87.4-85-90.7z"/>
    </g>
</svg>
