<svg xmlns="http://www.w3.org/2000/svg" viewBox="0 0 25.732 25.732">
    <path d="M5.733 2.183l-.035.03c.073-.076.178-.16.247-.204C7.96.7 10.285 0 12.868 0c2.415 0 4.677.667 6.608 1.827.14.083.522.345.72.583-1.864-2.053-7.34 2.354-7.34 2.354-1.894-1.46-3.636-2.455-4.933-2.81-1.084-.296-1.834-.048-2.19.23zm16.572 1.942c-.057-.063-.12-.122-.176-.187-.472-.517-1.05-.642-1.573-.608-.475.15-2.67.94-5.375 3.494 0 0 3.045 2.96 4.91 5.988 1.863 3.027 2.977 5.406 2.292 8.708 2.08-2.285 3.347-5.32 3.347-8.655 0-3.374-1.298-6.445-3.425-8.74zm-4.648 9.98c-.826-.927-2.055-2.255-3.678-3.87-.356-.352-.73-.72-1.125-1.1 0 0-.593.592-1.365 1.372-.988.997-2.27 2.3-2.98 3.06-1.266 1.35-4.893 5.593-5.097 7.972 0 0-.807-1.888.964-6.24 1.157-2.845 4.653-7.117 6.113-8.51 0 0-1.334-1.467-3.008-2.48l-.01-.004s-.02-.015-.05-.034c-.804-.48-1.683-.85-2.53-.9-.863.062-1.41.694-1.41.694-2.16 2.302-3.48 5.396-3.48 8.8 0 7.105 5.76 12.866 12.866 12.866 3.77 0 7.164-1.626 9.518-4.21 0-.005-.27-1.7-2.002-4.134-.407-.57-1.894-2.35-2.727-3.283z"/>
</svg>
